<svg width="195" height="115" viewBox="0 0 195 115" fill="none" xmlns="http://www.w3.org/2000/svg">
<rect width="195" height="115" rx="5" fill="#00FF99"/>
<path d="M28.9805 50L29.7005 45.83H40.0805L39.3605 50H28.9805ZM31.8605 33.17L32.6105 29H42.9605L42.2105 33.17H31.8605ZM30.5105 41L31.2305 36.92H41.0105L40.2905 41H30.5105ZM29.3105 29H34.1405L30.5105 50H25.7405L29.3105 29ZM55.3794 36.2H59.8494L57.4794 50H53.0394L55.3794 36.2ZM43.2294 43.07C43.4094 41.71 43.8594 40.49 44.5794 39.41C45.2994 38.31 46.1894 37.45 47.2494 36.83C48.3294 36.21 49.4894 35.9 50.7294 35.9C51.6494 35.9 52.4294 36.1 53.0694 36.5C53.7294 36.88 54.2494 37.41 54.6294 38.09C55.0294 38.77 55.2894 39.54 55.4094 40.4C55.5494 41.26 55.5594 42.16 55.4394 43.1C55.3194 44.08 55.0594 45.01 54.6594 45.89C54.2794 46.75 53.7894 47.51 53.1894 48.17C52.5894 48.83 51.8894 49.35 51.0894 49.73C50.3094 50.09 49.4594 50.27 48.5394 50.27C47.3194 50.27 46.2794 49.95 45.4194 49.31C44.5794 48.65 43.9594 47.78 43.5594 46.7C43.1794 45.6 43.0694 44.39 43.2294 43.07ZM47.9094 43.1C47.8294 43.7 47.8594 44.27 47.9994 44.81C48.1594 45.35 48.4394 45.79 48.8394 46.13C49.2594 46.45 49.7694 46.61 50.3694 46.61C50.8094 46.63 51.2394 46.55 51.6594 46.37C52.0794 46.19 52.4594 45.94 52.7994 45.62C53.1594 45.28 53.4594 44.89 53.6994 44.45C53.9394 44.01 54.0994 43.55 54.1794 43.07C54.2394 42.61 54.2294 42.18 54.1494 41.78C54.0694 41.36 53.9194 40.99 53.6994 40.67C53.4994 40.33 53.2394 40.07 52.9194 39.89C52.6194 39.69 52.2594 39.58 51.8394 39.56C51.2194 39.54 50.6194 39.69 50.0394 40.01C49.4794 40.33 49.0094 40.77 48.6294 41.33C48.2494 41.87 48.0094 42.46 47.9094 43.1ZM62.539 45.02C63.059 45.48 63.559 45.89 64.039 46.25C64.519 46.59 64.989 46.85 65.449 47.03C65.909 47.19 66.359 47.26 66.799 47.24C67.219 47.24 67.569 47.13 67.849 46.91C68.129 46.67 68.269 46.38 68.269 46.04C68.309 45.72 68.219 45.45 67.999 45.23C67.779 45.01 67.479 44.82 67.099 44.66C66.719 44.48 66.279 44.3 65.779 44.12C65.179 43.9 64.609 43.61 64.069 43.25C63.549 42.89 63.129 42.44 62.809 41.9C62.509 41.34 62.399 40.67 62.479 39.89C62.539 38.99 62.819 38.25 63.319 37.67C63.839 37.09 64.499 36.65 65.299 36.35C66.099 36.05 66.949 35.9 67.849 35.9C68.989 35.9 70.019 36.1 70.939 36.5C71.879 36.9 72.729 37.38 73.489 37.94L71.629 40.85C71.129 40.33 70.559 39.89 69.919 39.53C69.299 39.17 68.669 38.99 68.029 38.99C67.609 38.99 67.259 39.08 66.979 39.26C66.719 39.42 66.579 39.65 66.559 39.95C66.519 40.27 66.619 40.53 66.859 40.73C67.119 40.93 67.469 41.12 67.909 41.3C68.349 41.46 68.799 41.63 69.259 41.81C69.919 42.07 70.509 42.38 71.029 42.74C71.569 43.1 71.989 43.54 72.289 44.06C72.609 44.58 72.739 45.24 72.679 46.04C72.619 47 72.339 47.82 71.839 48.5C71.359 49.16 70.719 49.66 69.919 50C69.119 50.36 68.209 50.55 67.189 50.57C66.249 50.57 65.369 50.45 64.549 50.21C63.729 49.99 62.969 49.68 62.269 49.28C61.569 48.86 60.919 48.42 60.319 47.96L62.539 45.02ZM90.1533 36.2L77.9133 56.57H73.2933L78.0033 48.74L74.3433 36.2H79.1133L81.5733 47.27L79.2633 47.21L85.4433 36.2H90.1533ZM99.2633 33.53L100.073 29H116.273L115.493 33.53H109.913L107.063 50H102.083L104.903 33.53H99.2633ZM123.993 36.2H128.463L126.093 50H121.653L123.993 36.2ZM111.843 43.07C112.023 41.71 112.473 40.49 113.193 39.41C113.913 38.31 114.803 37.45 115.863 36.83C116.943 36.21 118.103 35.9 119.343 35.9C120.263 35.9 121.043 36.1 121.683 36.5C122.343 36.88 122.863 37.41 123.243 38.09C123.643 38.77 123.903 39.54 124.023 40.4C124.163 41.26 124.173 42.16 124.053 43.1C123.933 44.08 123.673 45.01 123.273 45.89C122.893 46.75 122.403 47.51 121.803 48.17C121.203 48.83 120.503 49.35 119.703 49.73C118.923 50.09 118.073 50.27 117.153 50.27C115.933 50.27 114.893 49.95 114.033 49.31C113.193 48.65 112.573 47.78 112.173 46.7C111.793 45.6 111.683 44.39 111.843 43.07ZM116.523 43.1C116.443 43.7 116.473 44.27 116.613 44.81C116.773 45.35 117.053 45.79 117.453 46.13C117.873 46.45 118.383 46.61 118.983 46.61C119.423 46.63 119.853 46.55 120.273 46.37C120.693 46.19 121.073 45.94 121.413 45.62C121.773 45.28 122.073 44.89 122.313 44.45C122.553 44.01 122.713 43.55 122.793 43.07C122.853 42.61 122.843 42.18 122.763 41.78C122.683 41.36 122.533 40.99 122.313 40.67C122.113 40.33 121.853 40.07 121.533 39.89C121.233 39.69 120.873 39.58 120.453 39.56C119.833 39.54 119.233 39.69 118.653 40.01C118.093 40.33 117.623 40.77 117.243 41.33C116.863 41.87 116.623 42.46 116.523 43.1ZM137.842 26.6L133.822 50H129.352L133.342 26.6H137.842ZM145.942 43.1C145.762 44.46 145.312 45.69 144.592 46.79C143.872 47.87 142.972 48.73 141.892 49.37C140.832 49.99 139.692 50.3 138.472 50.3C137.552 50.3 136.762 50.11 136.102 49.73C135.442 49.33 134.912 48.79 134.512 48.11C134.132 47.43 133.872 46.66 133.732 45.8C133.612 44.92 133.612 44.01 133.732 43.07C133.872 42.09 134.132 41.17 134.512 40.31C134.892 39.43 135.382 38.66 135.982 38C136.602 37.34 137.302 36.83 138.082 36.47C138.862 36.09 139.712 35.9 140.632 35.9C141.852 35.9 142.882 36.23 143.722 36.89C144.582 37.53 145.202 38.4 145.582 39.5C145.982 40.58 146.102 41.78 145.942 43.1ZM141.292 43.07C141.392 42.47 141.352 41.91 141.172 41.39C141.012 40.85 140.732 40.41 140.332 40.07C139.932 39.73 139.422 39.56 138.802 39.56C138.362 39.56 137.932 39.65 137.512 39.83C137.112 40.01 136.732 40.26 136.372 40.58C136.012 40.9 135.712 41.28 135.472 41.72C135.252 42.16 135.092 42.62 134.992 43.1C134.932 43.56 134.942 44 135.022 44.42C135.102 44.82 135.242 45.19 135.442 45.53C135.662 45.87 135.932 46.14 136.252 46.34C136.572 46.52 136.942 46.61 137.362 46.61C138.002 46.63 138.592 46.48 139.132 46.16C139.692 45.84 140.162 45.41 140.542 44.87C140.942 44.31 141.192 43.71 141.292 43.07ZM151.302 26.6H155.832L151.782 50H147.342L151.302 26.6ZM162.544 50.3C161.144 50.3 159.924 50.05 158.884 49.55C157.864 49.03 157.064 48.3 156.484 47.36C155.924 46.42 155.644 45.3 155.644 44C155.644 42.86 155.854 41.8 156.274 40.82C156.694 39.84 157.284 38.99 158.044 38.27C158.824 37.53 159.744 36.95 160.804 36.53C161.864 36.11 163.034 35.9 164.314 35.9C165.714 35.9 166.884 36.15 167.824 36.65C168.784 37.13 169.504 37.83 169.984 38.75C170.484 39.65 170.734 40.74 170.734 42.02C170.734 42.34 170.704 42.69 170.644 43.07C170.584 43.45 170.504 43.78 170.404 44.06H157.924V41.54H166.804L165.754 42.92C165.874 42.72 165.974 42.51 166.054 42.29C166.134 42.05 166.174 41.84 166.174 41.66C166.174 41.08 166.084 40.59 165.904 40.19C165.744 39.79 165.494 39.48 165.154 39.26C164.834 39.04 164.414 38.93 163.894 38.93C163.354 38.93 162.864 39.04 162.424 39.26C162.004 39.46 161.634 39.75 161.314 40.13C161.014 40.51 160.764 40.98 160.564 41.54C160.384 42.08 160.244 42.69 160.144 43.37C160.044 44.09 160.074 44.73 160.234 45.29C160.414 45.85 160.714 46.28 161.134 46.58C161.574 46.88 162.114 47.03 162.754 47.03C163.514 47.03 164.174 46.87 164.734 46.55C165.294 46.23 165.774 45.79 166.174 45.23L170.074 46.22C169.354 47.54 168.354 48.55 167.074 49.25C165.814 49.95 164.304 50.3 162.544 50.3ZM44.6132 77.62C44.9532 78.34 45.3232 78.98 45.7232 79.54C46.1432 80.08 46.6232 80.51 47.1632 80.83C47.7232 81.13 48.3632 81.28 49.0832 81.28C49.6232 81.28 50.1132 81.18 50.5532 80.98C50.9932 80.78 51.3532 80.51 51.6332 80.17C51.9132 79.81 52.0632 79.42 52.0832 79C52.1632 78.46 52.0532 78.03 51.7532 77.71C51.4532 77.37 51.0232 77.07 50.4632 76.81C49.9032 76.53 49.2632 76.24 48.5432 75.94C48.0032 75.72 47.4432 75.43 46.8632 75.07C46.3032 74.69 45.7832 74.24 45.3032 73.72C44.8432 73.2 44.4732 72.6 44.1932 71.92C43.9332 71.24 43.8432 70.47 43.9232 69.61C44.0432 68.35 44.4832 67.27 45.2432 66.37C46.0032 65.45 46.9632 64.74 48.1232 64.24C49.3032 63.74 50.5732 63.5 51.9332 63.52C53.1932 63.52 54.2832 63.73 55.2032 64.15C56.1232 64.57 56.8932 65.13 57.5132 65.83C58.1332 66.53 58.6132 67.3 58.9532 68.14L54.9632 70.21C54.7232 69.75 54.4432 69.34 54.1232 68.98C53.8232 68.6 53.4632 68.31 53.0432 68.11C52.6232 67.89 52.1132 67.78 51.5132 67.78C51.0532 67.78 50.6432 67.86 50.2832 68.02C49.9232 68.16 49.6232 68.36 49.3832 68.62C49.1632 68.88 49.0432 69.19 49.0232 69.55C48.9632 69.91 49.0332 70.24 49.2332 70.54C49.4532 70.84 49.7532 71.11 50.1332 71.35C50.5332 71.59 50.9732 71.81 51.4532 72.01C51.9532 72.21 52.4532 72.41 52.9532 72.61C53.8732 72.95 54.6732 73.41 55.3532 73.99C56.0532 74.55 56.5732 75.23 56.9132 76.03C57.2732 76.83 57.4132 77.77 57.3332 78.85C57.1932 80.25 56.7032 81.46 55.8632 82.48C55.0432 83.5 54.0032 84.29 52.7432 84.85C51.5032 85.39 50.1932 85.66 48.8132 85.66C47.5332 85.66 46.3632 85.42 45.3032 84.94C44.2432 84.46 43.3332 83.8 42.5732 82.96C41.8132 82.12 41.2532 81.18 40.8932 80.14L44.6132 77.62ZM66.4059 85.3C65.0059 85.3 63.7859 85.05 62.7459 84.55C61.7259 84.03 60.9259 83.3 60.3459 82.36C59.7859 81.42 59.5059 80.3 59.5059 79C59.5059 77.86 59.7159 76.8 60.1359 75.82C60.5559 74.84 61.1459 73.99 61.9059 73.27C62.6859 72.53 63.6059 71.95 64.6659 71.53C65.7259 71.11 66.8959 70.9 68.1759 70.9C69.5759 70.9 70.7459 71.15 71.6859 71.65C72.6459 72.13 73.3659 72.83 73.8459 73.75C74.3459 74.65 74.5959 75.74 74.5959 77.02C74.5959 77.34 74.5659 77.69 74.5059 78.07C74.4459 78.45 74.3659 78.78 74.2659 79.06H61.7859V76.54H70.6659L69.6159 77.92C69.7359 77.72 69.8359 77.51 69.9159 77.29C69.9959 77.05 70.0359 76.84 70.0359 76.66C70.0359 76.08 69.9459 75.59 69.7659 75.19C69.6059 74.79 69.3559 74.48 69.0159 74.26C68.6959 74.04 68.2759 73.93 67.7559 73.93C67.2159 73.93 66.7259 74.04 66.2859 74.26C65.8659 74.46 65.4959 74.75 65.1759 75.13C64.8759 75.51 64.6259 75.98 64.4259 76.54C64.2459 77.08 64.1059 77.69 64.0059 78.37C63.9059 79.09 63.9359 79.73 64.0959 80.29C64.2759 80.85 64.5759 81.28 64.9959 81.58C65.4359 81.88 65.9759 82.03 66.6159 82.03C67.3759 82.03 68.0359 81.87 68.5959 81.55C69.1559 81.23 69.6359 80.79 70.0359 80.23L73.9359 81.22C73.2159 82.54 72.2159 83.55 70.9359 84.25C69.6759 84.95 68.1659 85.3 66.4059 85.3ZM82.5051 71.2L80.1351 85H75.7251L78.0951 71.2H82.5051ZM85.7451 75.85C85.5251 75.65 85.2851 75.48 85.0251 75.34C84.7851 75.18 84.4951 75.1 84.1551 75.1C83.6551 75.08 83.2051 75.22 82.8051 75.52C82.4051 75.8 82.0751 76.18 81.8151 76.66C81.5551 77.12 81.3851 77.62 81.3051 78.16L80.6151 76.57C80.7951 75.61 81.1451 74.7 81.6651 73.84C82.2051 72.96 82.8351 72.25 83.5551 71.71C84.2951 71.15 85.0651 70.87 85.8651 70.87C86.3651 70.87 86.8051 70.98 87.1851 71.2C87.5851 71.42 87.9251 71.71 88.2051 72.07L85.7451 75.85ZM89.4229 71.2H94.1329L95.9629 78.76L100.193 71.2H105.023L94.7929 86.65L89.4229 71.2ZM107.024 66.01C107.024 65.29 107.284 64.71 107.804 64.27C108.324 63.81 108.944 63.58 109.664 63.58C110.404 63.58 111.024 63.81 111.524 64.27C112.044 64.71 112.304 65.29 112.304 66.01C112.304 66.73 112.044 67.32 111.524 67.78C111.024 68.24 110.404 68.47 109.664 68.47C108.944 68.47 108.324 68.24 107.804 67.78C107.284 67.32 107.024 66.73 107.024 66.01ZM106.604 71.2H110.954L108.614 85H104.264L106.604 71.2ZM117.092 78.1C116.992 78.76 117.042 79.36 117.242 79.9C117.462 80.44 117.802 80.87 118.262 81.19C118.742 81.49 119.312 81.65 119.972 81.67C120.812 81.69 121.612 81.5 122.372 81.1C123.132 80.7 123.772 80.22 124.292 79.66L123.722 84.04C123.142 84.42 122.492 84.73 121.772 84.97C121.052 85.19 120.222 85.3 119.282 85.3C117.862 85.3 116.602 84.99 115.502 84.37C114.402 83.73 113.582 82.87 113.042 81.79C112.502 80.71 112.322 79.47 112.502 78.07C112.702 76.65 113.212 75.41 114.032 74.35C114.852 73.27 115.892 72.43 117.152 71.83C118.412 71.21 119.782 70.9 121.262 70.9C122.162 70.9 122.952 71.01 123.632 71.23C124.332 71.45 124.952 71.74 125.492 72.1L124.892 76.54C124.512 75.9 124.002 75.4 123.362 75.04C122.742 74.68 122.062 74.5 121.322 74.5C120.602 74.5 119.942 74.67 119.342 75.01C118.742 75.33 118.242 75.76 117.842 76.3C117.442 76.82 117.192 77.42 117.092 78.1ZM133.73 85.3C132.33 85.3 131.11 85.05 130.07 84.55C129.05 84.03 128.25 83.3 127.67 82.36C127.11 81.42 126.83 80.3 126.83 79C126.83 77.86 127.04 76.8 127.46 75.82C127.88 74.84 128.47 73.99 129.23 73.27C130.01 72.53 130.93 71.95 131.99 71.53C133.05 71.11 134.22 70.9 135.5 70.9C136.9 70.9 138.07 71.15 139.01 71.65C139.97 72.13 140.69 72.83 141.17 73.75C141.67 74.65 141.92 75.74 141.92 77.02C141.92 77.34 141.89 77.69 141.83 78.07C141.77 78.45 141.69 78.78 141.59 79.06H129.11V76.54H137.99L136.94 77.92C137.06 77.72 137.16 77.51 137.24 77.29C137.32 77.05 137.36 76.84 137.36 76.66C137.36 76.08 137.27 75.59 137.09 75.19C136.93 74.79 136.68 74.48 136.34 74.26C136.02 74.04 135.6 73.93 135.08 73.93C134.54 73.93 134.05 74.04 133.61 74.26C133.19 74.46 132.82 74.75 132.5 75.13C132.2 75.51 131.95 75.98 131.75 76.54C131.57 77.08 131.43 77.69 131.33 78.37C131.23 79.09 131.26 79.73 131.42 80.29C131.6 80.85 131.9 81.28 132.32 81.58C132.76 81.88 133.3 82.03 133.94 82.03C134.7 82.03 135.36 81.87 135.92 81.55C136.48 81.23 136.96 80.79 137.36 80.23L141.26 81.22C140.54 82.54 139.54 83.55 138.26 84.25C137 84.95 135.49 85.3 133.73 85.3ZM144.819 80.02C145.339 80.48 145.839 80.89 146.319 81.25C146.799 81.59 147.269 81.85 147.729 82.03C148.189 82.19 148.639 82.26 149.079 82.24C149.499 82.24 149.849 82.13 150.129 81.91C150.409 81.67 150.549 81.38 150.549 81.04C150.589 80.72 150.499 80.45 150.279 80.23C150.059 80.01 149.759 79.82 149.379 79.66C148.999 79.48 148.559 79.3 148.059 79.12C147.459 78.9 146.889 78.61 146.349 78.25C145.829 77.89 145.409 77.44 145.089 76.9C144.789 76.34 144.679 75.67 144.759 74.89C144.819 73.99 145.099 73.25 145.599 72.67C146.119 72.09 146.779 71.65 147.579 71.35C148.379 71.05 149.229 70.9 150.129 70.9C151.269 70.9 152.299 71.1 153.219 71.5C154.159 71.9 155.009 72.38 155.769 72.94L153.909 75.85C153.409 75.33 152.839 74.89 152.199 74.53C151.579 74.17 150.949 73.99 150.309 73.99C149.889 73.99 149.539 74.08 149.259 74.26C148.999 74.42 148.859 74.65 148.839 74.95C148.799 75.27 148.899 75.53 149.139 75.73C149.399 75.93 149.749 76.12 150.189 76.3C150.629 76.46 151.079 76.63 151.539 76.81C152.199 77.07 152.789 77.38 153.309 77.74C153.849 78.1 154.269 78.54 154.569 79.06C154.889 79.58 155.019 80.24 154.959 81.04C154.899 82 154.619 82.82 154.119 83.5C153.639 84.16 152.999 84.66 152.199 85C151.399 85.36 150.489 85.55 149.469 85.57C148.529 85.57 147.649 85.45 146.829 85.21C146.009 84.99 145.249 84.68 144.549 84.28C143.849 83.86 143.199 83.42 142.599 82.96L144.819 80.02Z" fill="black"/>
</svg>
